<!-- Generated by IcoMoon.io -->
<svg version="1.1" xmlns="http://www.w3.org/2000/svg" width="32" height="32" viewBox="0 0 32 32">
<title>activity8</title>
<path fill="none" stroke="#70cf29" stroke-linejoin="miter" stroke-linecap="butt" stroke-miterlimit="10" stroke-width="0.3721" d="M26.18 4.148c-2.735-2.352-6.29-3.776-10.18-3.776-8.631 0-15.628 6.997-15.628 15.628 0 3.89 1.424 7.446 3.776 10.18"></path>
<path fill="none" stroke="#3fa9f5" stroke-linejoin="miter" stroke-linecap="butt" stroke-miterlimit="10" stroke-width="0.3721" d="M5.72 27.766c2.748 2.403 6.342 3.862 10.28 3.862 8.631 0 15.628-6.998 15.628-15.628 0-3.938-1.459-7.532-3.862-10.28"></path>
<path fill="#3fa9f5" d="M14.838 14.54c1.901 0 3.448-1.546 3.448-3.447s-1.546-3.447-3.448-3.447-3.448 1.546-3.448 3.447c0 1.901 1.547 3.447 3.448 3.447zM14.838 8.39c1.491 0 2.704 1.213 2.704 2.703s-1.213 2.703-2.704 2.703-2.704-1.213-2.704-2.703 1.213-2.703 2.704-2.703zM16 21.581h-6.314c0.179-2.765 2.347-4.879 5.082-4.879 1.011 0 1.822 0.201 2.551 0.631l0.378-0.641c-0.849-0.501-1.779-0.734-2.929-0.734-3.274 0-5.838 2.634-5.838 5.996v0.372h7.070v-0.744zM25.201 24.565l-2.151-2.63c0.246-0.422 0.391-0.929 0.391-1.469v0c0-1.641-1.336-2.977-2.977-2.977s-2.977 1.335-2.977 2.977c0 0.535 0.144 1.036 0.391 1.469l-2.151 2.63c-0.052 0.064-0.084 0.146-0.084 0.235 0 0.059 0.014 0.114 0.038 0.164l-0.001-0.002c0.059 0.125 0.184 0.21 0.329 0.21 0.004 0 0.008-0 0.012-0h-0.001l1.458-0.021 0.518 1.353c0.052 0.136 0.179 0.229 0.324 0.238l0.023 0.001c0.137 0 0.264-0.076 0.329-0.197l1.654-3.11c0.045 0.002 0.090 0.007 0.137 0.007s0.091-0.005 0.137-0.007l1.654 3.11c0.065 0.122 0.192 0.197 0.329 0.197l0.023-0.001c0.148-0.009 0.272-0.104 0.324-0.236l0.001-0.003 0.518-1.353 1.458 0.021c0.004 0 0.009 0 0.014 0 0.144 0 0.269-0.085 0.325-0.208l0.001-0.002c0.023-0.047 0.037-0.103 0.037-0.161 0-0.090-0.032-0.172-0.085-0.236l0 0.001zM18.401 25.475l-0.319-0.832c-0.056-0.146-0.18-0.247-0.353-0.239l-0.918 0.013 1.529-1.87c0.33 0.337 0.739 0.596 1.196 0.747l0.021 0.006-1.157 2.175zM18.233 20.465c0-1.231 1.001-2.233 2.233-2.233s2.233 1.001 2.233 2.233-1.001 2.233-2.233 2.233c-1.232 0-2.233-1.001-2.233-2.233zM23.201 24.403c-0.002-0-0.004-0-0.006-0-0.157 0-0.292 0.098-0.346 0.237l-0.001 0.003-0.319 0.832-1.156-2.175c0.478-0.157 0.887-0.416 1.216-0.752l0-0.001 1.53 1.87-0.919-0.013z"></path>
</svg>
