<!-- Generated by IcoMoon.io -->
<svg version="1.1" xmlns="http://www.w3.org/2000/svg" width="32" height="32" viewBox="0 0 32 32">
<title>activity1</title>
<path fill="none" stroke="#70cf29" stroke-linejoin="miter" stroke-linecap="butt" stroke-miterlimit="10" stroke-width="0.3721" d="M26.18 4.148c-2.735-2.351-6.29-3.776-10.18-3.776-8.631 0-15.628 6.997-15.628 15.628 0 3.89 1.424 7.445 3.776 10.18"></path>
<path fill="none" stroke="#3fa9f5" stroke-linejoin="miter" stroke-linecap="butt" stroke-miterlimit="10" stroke-width="0.3721" d="M5.72 27.766c2.748 2.403 6.342 3.862 10.28 3.862 8.631 0 15.628-6.997 15.628-15.628 0-3.937-1.459-7.532-3.862-10.279"></path>
<path fill="#3fa9f5" d="M19.328 14.945c1.828 0 3.314-1.487 3.314-3.314s-1.487-3.315-3.314-3.315c-1.828 0-3.315 1.487-3.315 3.315s1.487 3.314 3.315 3.314zM19.328 9.060c1.419 0.002 2.569 1.152 2.57 2.57v0c-0.002 1.419-1.151 2.568-2.57 2.57h-0c-1.418 0-2.571-1.153-2.571-2.57s1.154-2.57 2.571-2.57zM19.349 16.285c-3.126 0-5.582 2.543-5.582 5.668v0.372h11.163v-0.372c0-3.126-2.455-5.668-5.581-5.668zM14.418 21.581c0.191-2.543 2.32-4.552 4.911-4.552s4.72 2.010 4.91 4.552h-9.821zM11.276 16.41c1.493 0 2.708-1.215 2.708-2.708s-1.215-2.708-2.708-2.708c-1.494 0-2.709 1.215-2.709 2.708s1.215 2.709 2.709 2.709zM11.276 11.738c1.084 0.001 1.963 0.88 1.964 1.964v0c-0.001 1.084-0.88 1.963-1.964 1.965h-0c-1.085-0.001-1.964-0.88-1.965-1.965v-0c0.001-1.084 0.88-1.963 1.965-1.964h0zM6.698 21.953v0.372h5.581v-0.744h-4.821c0.178-2.006 1.78-3.528 3.795-3.528 0.761 0 1.39 0.153 1.923 0.467l0.378-0.641c-0.65-0.383-1.403-0.57-2.301-0.57-2.555 0-4.556 2.040-4.556 4.644z"></path>
</svg>
