<!-- Generated by IcoMoon.io -->
<svg version="1.1" xmlns="http://www.w3.org/2000/svg" width="32" height="32" viewBox="0 0 32 32">
<title>design</title>
<path fill="#fff" d="M28.176 22.603h0.6v-2.005l1.838 1.796c0.040 0.032 0.090 0.069 0.14 0.105l0.012 0.008c0.043 0.029 0.085 0.055 0.129 0.078 0.035 0.018 0.075 0.033 0.118 0.042l0.003 0.001c0.043 0.009 0.088 0.013 0.131 0.013 0.089 0 0.179-0.015 0.263-0.055 0.076-0.038 0.14-0.088 0.192-0.149l0.001-0.001c0.056-0.066 0.094-0.142 0.122-0.223 0.028-0.089 0.042-0.183 0.042-0.274v-1.883h-0.601v1.999l-1.842-1.813c-0.143-0.14-0.318-0.246-0.525-0.246-0.084 0-0.164 0.019-0.236 0.051l0.004-0.001c-0.077 0.036-0.144 0.079-0.203 0.131l0.001-0.001c-0.056 0.053-0.102 0.116-0.137 0.185l-0.002 0.004c-0.034 0.066-0.053 0.143-0.053 0.226 0 0 0 0.001 0 0.002v-0l0.001 2.009zM19.17 18.325h2.107v-3.778l6.95 3.478c0.75 0.373 1.886 0.461 2.616 0 0.714-0.449 0.927-1.227 0.927-2.028v-6.561h-24.609c-0.415 0-0.824 0.063-1.218 0.187-0.408 0.128-0.763 0.313-1.076 0.55l0.009-0.006c-0.314 0.236-0.568 0.526-0.762 0.863-0.204 0.353-0.292 0.742-0.292 1.146 0 0.388 0.080 0.757 0.251 1.103 0.17 0.343 0.396 0.633 0.669 0.871l0.003 0.003c0.273 0.24 0.594 0.433 0.946 0.564l0.021 0.007c0.335 0.13 0.723 0.205 1.129 0.205 0.003 0 0.007 0 0.010 0h8.697v1.315h-13.19v-6.882h-2.357v8.967l14.717-0.001c0.383 0 0.757-0.069 1.118-0.204 0.368-0.14 0.684-0.331 0.96-0.569l-0.004 0.003c0.272-0.236 0.494-0.521 0.657-0.841l0.007-0.016c0.158-0.309 0.25-0.674 0.25-1.061 0-0.010-0-0.019-0-0.029v0.001c0-0.381-0.077-0.743-0.234-1.089-0.158-0.348-0.372-0.644-0.633-0.89l-0.001-0.001c-0.268-0.252-0.586-0.455-0.936-0.594l-0.020-0.007c-0.344-0.14-0.744-0.222-1.162-0.222-0.010 0-0.020 0-0.030 0h-8.571v-1.342h23.534v4.845l-7.024-3.498c-1.628-0.81-3.457-0.519-3.457 1.625v3.888zM3.022 22.021h-2.401v-1.378h2.401v1.378zM0.012 22.603h2.762c0.113 0 0.222-0.019 0.33-0.059 0.101-0.038 0.196-0.092 0.277-0.164 0.080-0.071 0.144-0.155 0.192-0.251 0.048-0.099 0.071-0.206 0.071-0.316v-0.974c0-0.112-0.021-0.22-0.069-0.322-0.048-0.097-0.111-0.18-0.188-0.247l-0.001-0.001c-0.076-0.069-0.167-0.124-0.267-0.16l-0.006-0.002c-0.097-0.038-0.209-0.060-0.326-0.060-0.001 0-0.002 0-0.003 0h-2.772l0.001 2.556zM9.778 22.614v-0.632h-3.010v-0.35h3.010v-0.613h-3.010v-0.372h3.010v-0.61h-2.715c-0.12 0-0.241 0.017-0.354 0.056-0.104 0.037-0.199 0.088-0.283 0.159-0.159 0.138-0.26 0.34-0.26 0.565 0 0.011 0 0.021 0.001 0.031l-0-0.002v0.951c0 0.114 0.021 0.227 0.071 0.328 0.051 0.097 0.115 0.184 0.198 0.257 0.083 0.074 0.179 0.128 0.286 0.168 0.107 0.038 0.219 0.061 0.335 0.061h2.722zM16.081 20.646v-0.578h-2.831c-0.116 0-0.234 0.017-0.347 0.054-0.109 0.033-0.213 0.084-0.304 0.153-0.088 0.067-0.16 0.149-0.215 0.242l-0.002 0.004c-0.052 0.091-0.083 0.2-0.083 0.316 0 0.004 0 0.007 0 0.011v-0.001c0 0.109 0.022 0.216 0.072 0.314 0.046 0.094 0.111 0.181 0.191 0.248 0.082 0.073 0.173 0.126 0.275 0.164 0.105 0.039 0.214 0.059 0.325 0.059h2.482v0.377h-3.179v0.592h2.941c0.11 0 0.216-0.019 0.317-0.058 0.101-0.038 0.193-0.091 0.273-0.162 0.081-0.068 0.142-0.151 0.19-0.243 0.045-0.087 0.071-0.19 0.071-0.3 0-0.004-0-0.008-0-0.012v0.001c0-0.002 0-0.005 0-0.007 0-0.11-0.024-0.214-0.068-0.308l0.002 0.004c-0.045-0.1-0.105-0.184-0.179-0.255l-0-0c-0.077-0.070-0.168-0.127-0.268-0.167l-0.006-0.002c-0.097-0.040-0.209-0.063-0.327-0.063-0.004 0-0.008 0-0.012 0h-2.448v-0.385l3.131 0.001zM19.452 20.046h-0.671v2.578h0.671v-2.578zM23.856 21.009v0.613h1.179v0.36h-2.463v-1.34h3.082v-0.597h-2.754c-0.235 0-0.493 0.040-0.686 0.186-0.167 0.128-0.24 0.302-0.24 0.51v1.048c0 0.12 0.022 0.238 0.077 0.345 0.053 0.098 0.122 0.181 0.209 0.249 0.090 0.069 0.191 0.121 0.299 0.154 0.113 0.037 0.232 0.054 0.353 0.054h1.765c0.121 0 0.24-0.015 0.36-0.047 0.111-0.030 0.214-0.077 0.31-0.144 0.090-0.065 0.163-0.146 0.216-0.24l0.002-0.004c0.051-0.096 0.082-0.209 0.082-0.33 0-0.005-0-0.011-0-0.016v0.001-0.802l-1.789-0.001z"></path>
</svg>
