<!-- Generated by IcoMoon.io -->
<svg version="1.1" xmlns="http://www.w3.org/2000/svg" width="32" height="32" viewBox="0 0 32 32">
<title>letter</title>
<path fill="#fff" d="M16 0c-8.839 0-16 7.164-16 16 0 8.839 7.161 16 16 16 8.835 0 16-7.161 16-16 0-8.836-7.165-16-16-16zM25.569 9.371l0.023 0.004-8.929 8.931c-0.145 0.138-0.342 0.223-0.559 0.223-0.218 0-0.416-0.086-0.562-0.226l0 0-8.933-8.932h18.961zM5.985 9.969c0-0.007 0.004-0.011 0.004-0.011l6.068 6.065-6.072 6.072v-12.127zM6.583 22.797c-0.027 0-0.052-0.013-0.079-0.017l6.155-6.153 2.279 2.279c0.308 0.311 0.724 0.48 1.165 0.48 0.437 0 0.853-0.169 1.161-0.48l2.204-2.205 6.096 6.097h-18.981zM26.168 22.195l-6.096-6.096 6.096-6.096v12.192z"></path>
</svg>
