<!-- Generated by IcoMoon.io -->
<svg version="1.1" xmlns="http://www.w3.org/2000/svg" width="32" height="32" viewBox="0 0 32 32">
<title>logo</title>
<path fill="#3fa9f5" d="M14.877 18.041c0.289 0.056 0.341-0.085 0.388-0.185s0.185-0.255 0.386-0.35c0.202-0.097 0.473-0.258 0.579-0.355 0.107-0.097 0.221-0.217 0.464-0.226s0.364-0.129 0.44-0.285c0.078-0.156 0.024-0.485 0.077-0.601 0.053-0.115 0.188-0.32 0.267-0.5 0.081-0.18 0.011-0.165-0.108-0.113-0.119 0.051-0.223 0.092-0.269 0.252-0.047 0.16-0.089 0.197-0.239 0.307-0.151 0.108-0.261 0.186-0.421 0.238-0.163 0.052-0.479 0.151-0.657 0.237-0.166 0.081-0.341 0.178-0.533 0.293l-1.226 1.225c0.229-0.024 0.596 0.013 0.853 0.063z"></path>
<path fill="#3fa9f5" d="M28.183 5.633c-0.059 0.048-0.103 0.092-0.113 0.124-0.031 0.111-0.048 0.594-0.161 0.801-0.11 0.207-0.148 0.604-0.15 0.679-0 0.12-0.032 0.232-0.088 0.329l0.002-0.003c-0.073 0.121-0.223 0.299-0.169 0.388s0.27 0.251 0.156 0.367c-0.114 0.116-0.391 0.284-0.311 0.455 0.083 0.172 0.212 0.487 0.206 0.615s-0.084 0.254-0.004 0.34c0.059 0.064 0.095 0.15 0.095 0.244 0 0.077-0.024 0.148-0.064 0.206l0.001-0.001c-0.118 0.188-0.695 0.999-1.049 1.295-0.353 0.297-0.68 0.631-0.78 0.824-0.101 0.191-0.113 0.338-0.163 0.405s-0.196 0.17-0.302 0.271c-0.104 0.101-0.022 0.162 0.032 0.251s0.009 0.232-0.077 0.319c-0.086 0.087-0.317 0.212-0.173 0.305 0.142 0.094 0.179 0.255 0.111 0.328s-0.217 0.27-0.227 0.344c-0.011 0.073-0.344 0.075-0.503-0.033-0.158-0.108-0.418-0.28-0.362-0.334s0.204-0.132 0.338-0.299c0.135-0.167 0.119-0.404 0.194-0.431 0.079-0.025 0.099-0.172-0.036-0.264-0.137-0.093-0.185-0.186-0.053-0.341s0.286-0.454 0.056-0.584c-0.229-0.13-0.485-0.067-0.781 0.028-0.297 0.095-0.247 0.164-0.628 0.519-0.383 0.354-0.225 0.549-0.457 0.802-0.232 0.252-0.212 0.378-0.444 0.63-0.231 0.252-0.584 0.475-0.697 0.67s0.017 0.237 0.26 0.085c0.244-0.151 0.133-0.155 0.495-0.191 0.364-0.037 0.367 0.025 0.616-0.089 0.252-0.113 0.386-0.193 0.494-0.080 0.108 0.114 0.296 0.363 0.379 0.559s0.107 0.472 0.039 0.796c-0.070 0.324-0.028 0.478-0.216 0.674-0.188 0.196-0.449 0.296-0.699 0.41-0.251 0.113-0.169 0.062-0.409 0.19s-0.289 0.034-0.401-0.129c-0.114-0.164-0.456-0.1-0.61 0.027-0.152 0.127-0.673 0.686-0.847 0.785s-0.652 0.244-0.81 0.407c-0.158 0.164-0.19 0.308-0.082 0.409 0.11 0.101 0.22 0.462-0.057 0.597s-0.44 0.236-0.516 0.423c-0.075 0.188-0.423 0.387-0.633 0.468-0.209 0.083-0.674 0.241-0.841 0.465-0.166 0.224-0.293 0.416-0.489 0.5-0.196 0.085-0.549 0.308-0.762 0.328s-0.383-0.274-0.849-0.191c-0.468 0.084-0.954 0.201-1.064 0.286-0.112 0.083-0.233 0.251-0.367 0.333-0.135 0.079-0.251 0.212-0.631 0.27-0.377 0.059-0.491 0.082-0.734 0.22-0.241 0.139-0.452 0.32-0.66 0.403-0.21 0.082-0.438 0.039-0.539 0.321s-0.149 0.634-0.34 0.767c-0.191 0.135-0.231 0.24-0.396 0.267-0.163 0.028-0.2-0.596-0.604-0.527-0.406 0.067-0.539 0.136-0.667 0.081-0.129-0.055-0.187-0.088-0.375-0.052-0.19 0.036-0.61-0.047-0.744 0.194-0.132 0.241-0.296 0.268-0.433 0.644-0.14 0.376-0.16 0.436 0.038 0.524s0.187 0.174 0.077 0.258c-0.113 0.083-0.384 0.256-0.46 0.455-0.077 0.199-0.094 0.321-0.201 0.478s-0.337 0.373-0.233 0.437c0.104 0.063 0.217 0.215 0.1 0.261-0.116 0.046-0.363 0.123-0.549 0.406-0.188 0.283-0.595 0.647-0.773 0.857-0.063 0.075-0.124 0.137-0.194 0.194 2.723 2.241 6.245 3.601 10.085 3.601 0.008 0 0.017 0 0.025-0h-0.001c8.837 0 16-7.163 16-16 0-0.006 0-0.012 0-0.019 0-3.96-1.444-7.582-3.835-10.369l0.018 0.021z"></path>
<path fill="#70cf29" d="M14.571 16.966c-0.178-0.025-0.332 0.114-0.402 0.179-0.071 0.064-0.115 0.021-0.256-0.023-0.142-0.044-0.288 0.109-0.328 0.226s-0.249 0.101-0.327 0.041c-0.078-0.060-0.287 0.022-0.41 0.105-0.122 0.081-0.233 0.201-0.361 0.332-0.13 0.13 0.153 0.256 0.247 0.356 0.089 0.094 0.233 0.047 0.32 0.011 0.088-0.038 0.267-0.087 0.379-0.129 0.113-0.041 0.293-0.033 0.504-0.078 0.024-0.005 0.058-0.006 0.086-0.008l1.226-1.226-0.041 0.024c-0.209 0.125-0.461 0.213-0.636 0.19z"></path>
<path fill="#70cf29" d="M3.665 25.559c0.604-0.196 1.138-0.847 1.351-1.196 0.212-0.349 0.753-1.048 1.094-1.495s1.225-1 1.967-1.244c0.741-0.243 1.575-0.557 2.002-1.025 0.425-0.468 0.396-0.603 0.676-0.729s0.647-0.273 0.734-0.425c0.087-0.152 0.091-0.663 0.521-0.801s0.415-0.145 0.453-0.325c0.037-0.18-0.215-0.314-0.35-0.332-0.133-0.018-0.516 0.077-0.462-0.052 0.055-0.128 0.311-0.463 0.641-0.615s0.724-0.419 0.822-0.591 0.37-0.455 0.7-0.607c0.331-0.152 0.785-0.411 1.007-0.503s0.787-0.324 0.907-0.393c0.121-0.071 0.572-0.206 0.594-0.449 0.020-0.244-0.173-0.271 0.050-0.548 0.223-0.279 0.356-0.347 0.554-0.702 0.196-0.356 0.255-0.423 0.535-0.569s0.968-0.569 1.055-0.57c0.086-0.001 0.286-0.009 0.443-0.261 0.156-0.25 0.351-0.223 0.505-0.263s0.381-0.441 0.575-0.502c0.193-0.059 0.264-0.297 0.287-0.466s0.114-0.552 0.305-0.6 0.319-0.351 0.367-0.517c0.047-0.166 0.109-0.615 0.341-0.681 0.231-0.068 0.151-0.029 0.286-0.196 0.133-0.167 0.247-0.448 0.455-0.616 0.21-0.168 0.308-0.255 0.364-0.494 0.059-0.239 0.22-0.969 0.525-1.384s0.606-0.632 0.942-0.92 0.345-0.631 0.536-0.84c0.19-0.209 0.059-0.338 0.177-0.471 0.115-0.132 0.13-0.241 0.152-0.312 0.023-0.072-0.081-0.209 0.063-0.363 0.144-0.152 0.267-0.148 0.397-0.279 0.087-0.087 0.068-0.16 0.068-0.233-2.575-1.869-5.798-2.99-9.284-2.99-0.008 0-0.015 0-0.023 0h0.001c-8.837 0-16 7.163-16 16 0 3.656 1.228 7.023 3.292 9.717 0.12-0.060 0.245-0.117 0.373-0.158z"></path>
</svg>
