<!-- Generated by IcoMoon.io -->
<svg version="1.1" xmlns="http://www.w3.org/2000/svg" width="32" height="32" viewBox="0 0 32 32">
<title>telephone1</title>
<path fill="#fff" opacity="0.8" d="M16 0c-8.836 0-16 7.164-16 16s7.164 16 16 16 16-7.164 16-16-7.164-16-16-16zM20.303 24.245c-2.12-0.131-6.289-2.565-8.232-4.752-1.937-2.188-3.861-6.617-3.735-8.741 0 0 2.309-3.055 3.369-2.993 1.068 0.064 4.057 3.435 2.927 4.437-1.12 0.996-2.183 0.935-2.245 1.992-0.060 1.060 0.935 2.188 1.927 3.311 1.003 1.128 1.997 2.247 3.060 2.307 1.060 0.067 1.125-0.991 2.245-1.993 1.125-0.997 4.12 2.379 4.055 3.439-0.059 1.056-3.371 2.995-3.371 2.995z"></path>
</svg>
