<svg width="54" height="54" viewBox="0 0 54 54" fill="none" xmlns="http://www.w3.org/2000/svg">
<path d="M25.1049 30.4438C25.5919 30.5385 25.6796 30.3001 25.759 30.131C25.8375 29.9608 26.0708 29.701 26.4111 29.5401C26.7524 29.3781 27.2099 29.105 27.3882 28.942C27.5685 28.779 27.7611 28.5762 28.1707 28.5599C28.5813 28.5426 28.7851 28.3429 28.9134 28.079C29.0449 27.8151 28.9532 27.2608 29.0428 27.0642C29.1325 26.8696 29.3597 26.5242 29.4932 26.2196C29.6287 25.9159 29.5115 25.9414 29.3108 26.029C29.1101 26.1146 28.9348 26.1849 28.8574 26.4549C28.7779 26.7259 28.7056 26.7881 28.4529 26.9725C28.1982 27.1559 28.0138 27.2873 27.7418 27.375C27.4667 27.4616 26.9338 27.6287 26.6332 27.7754C26.353 27.9119 26.0565 28.0749 25.7325 28.2685L23.6642 30.3368C24.0504 30.2971 24.6699 30.3592 25.1049 30.4438Z" fill="#3FA9F5"/>
<path d="M47.5587 9.50586C47.4589 9.58737 47.3855 9.66175 47.3692 9.71473C47.3163 9.9022 47.2877 10.7173 47.0972 11.0668C46.9107 11.4162 46.8466 12.0877 46.8445 12.213C46.8394 12.3373 46.8241 12.5574 46.6978 12.7632C46.5745 12.968 46.3218 13.2665 46.4135 13.4183C46.5042 13.5701 46.868 13.8422 46.6764 14.0378C46.4838 14.2334 46.0172 14.5167 46.1517 14.806C46.2913 15.0964 46.5093 15.6272 46.4991 15.8442C46.4889 16.0613 46.3575 16.2722 46.493 16.4168C46.6295 16.5615 46.7436 16.858 46.545 17.1739C46.3463 17.4907 45.3733 18.8601 44.7752 19.3604C44.1792 19.8616 43.628 20.4251 43.4578 20.7491C43.2877 21.0731 43.2683 21.3207 43.1827 21.4337C43.0981 21.5468 42.8516 21.7211 42.6743 21.8912C42.499 22.0614 42.6366 22.1643 42.7283 22.3151C42.82 22.4669 42.7436 22.7063 42.5989 22.853C42.4532 22.9997 42.063 23.2096 42.3055 23.3676C42.5469 23.5265 42.6081 23.7975 42.4929 23.9208C42.3788 24.0441 42.1261 24.3773 42.1098 24.5005C42.0915 24.6238 41.5291 24.6279 41.2611 24.4455C40.9952 24.2631 40.555 23.9728 40.6498 23.8821C40.7446 23.7914 40.9952 23.659 41.2204 23.3777C41.4476 23.0965 41.4201 22.6961 41.5484 22.6513C41.6819 22.6075 41.7155 22.3619 41.4873 22.205C41.257 22.0481 41.1755 21.8912 41.3977 21.6304C41.6218 21.3696 41.8806 20.8642 41.4934 20.6441C41.1063 20.424 40.6743 20.531 40.175 20.691C39.6737 20.852 39.7593 20.9681 39.1164 21.5662C38.4704 22.1643 38.7374 22.4934 38.3441 22.9193C37.9529 23.3441 37.9865 23.5571 37.5942 23.9819C37.204 24.4078 36.609 24.7838 36.4184 25.1119C36.2269 25.4399 36.446 25.5113 36.8566 25.2555C37.2682 25.0008 37.0807 24.9947 37.693 24.9325C38.3074 24.8714 38.3115 24.9764 38.7333 24.7838C39.1582 24.5922 39.3854 24.4567 39.5667 24.6483C39.7491 24.8408 40.066 25.2596 40.2066 25.5917C40.3492 25.9239 40.388 26.3875 40.2718 26.9346C40.1536 27.4807 40.2239 27.7405 39.907 28.0727C39.5892 28.4028 39.15 28.5719 38.7272 28.7645C38.3044 28.956 38.4419 28.8705 38.0374 29.0854C37.6329 29.3014 37.5494 29.1435 37.3599 28.8674C37.1683 28.5913 36.5896 28.6983 36.3308 28.9133C36.0741 29.1282 35.1948 30.0697 34.8993 30.2368C34.6059 30.4049 33.7989 30.6484 33.533 30.9235C33.2661 31.1996 33.2131 31.4431 33.3955 31.6133C33.5809 31.7854 33.7673 32.3947 33.2987 32.6209C32.83 32.8471 32.5559 33.0193 32.4286 33.3341C32.3032 33.651 31.7164 33.9872 31.3608 34.1248C31.0083 34.2644 30.2227 34.5303 29.9405 34.9093C29.6603 35.2873 29.4463 35.6113 29.1152 35.7529C28.7841 35.8966 28.189 36.2725 27.8294 36.3062C27.4697 36.3398 27.1834 35.8426 26.3958 35.9842C25.6052 36.1258 24.786 36.3245 24.5996 36.4661C24.4111 36.6067 24.2063 36.89 23.9801 37.0275C23.7519 37.162 23.5563 37.3862 22.9154 37.483C22.2786 37.5838 22.086 37.6205 21.6775 37.8548C21.2709 38.0902 20.9143 38.3959 20.5638 38.5354C20.2093 38.674 19.8252 38.5996 19.654 39.0765C19.4849 39.5533 19.4023 40.1463 19.0804 40.3714C18.7574 40.5987 18.6901 40.7759 18.412 40.8208C18.1369 40.8676 18.0737 39.8162 17.3921 39.9303C16.7074 40.0444 16.4823 40.1595 16.2673 40.0678C16.0503 39.9751 15.9524 39.9191 15.6335 39.9802C15.3126 40.0403 14.6035 39.8997 14.3793 40.3073C14.1572 40.7138 13.8801 40.7586 13.6488 41.3934C13.4124 42.0281 13.3788 42.128 13.713 42.2767C14.0472 42.4275 14.0278 42.5712 13.8424 42.7128C13.6539 42.8534 13.1954 43.1448 13.067 43.481C12.9376 43.8173 12.9091 44.0221 12.7267 44.288C12.5443 44.5539 12.1592 44.9187 12.3334 45.0256C12.5076 45.1326 12.7002 45.3883 12.5015 45.4668C12.3049 45.5432 11.8892 45.6736 11.5754 46.1515C11.2575 46.6293 10.5708 47.2427 10.2702 47.5973C10.1643 47.7226 10.0593 47.8285 9.94214 47.9243C14.5912 51.7216 20.5282 53.9998 27 53.9998C41.9122 53.9998 54 41.912 54 26.9998C54 20.3242 51.5721 14.2191 47.5587 9.50586Z" fill="#3FA9F5"/>
<path d="M24.5883 28.6302C24.2888 28.5884 24.028 28.8228 23.9098 28.9318C23.7895 29.0398 23.7162 28.9675 23.4778 28.8931C23.2373 28.8187 22.9918 29.0775 22.9245 29.2752C22.8552 29.4738 22.5037 29.4463 22.3723 29.3444C22.2409 29.2426 21.8883 29.3821 21.6805 29.5217C21.4737 29.6593 21.2872 29.862 21.0692 30.0831C20.8511 30.3022 21.328 30.5151 21.4859 30.6822C21.6367 30.8412 21.8792 30.7637 22.0259 30.7006C22.1736 30.6374 22.4752 30.5549 22.6668 30.4835C22.8573 30.4132 23.1599 30.4275 23.5175 30.3511C23.5562 30.3429 23.6153 30.3419 23.6622 30.3378L25.7305 28.2695C25.7071 28.2838 25.6857 28.295 25.6622 28.3093C25.3097 28.5202 24.8838 28.6699 24.5883 28.6302Z" fill="#70CF29"/>
<path d="M6.18351 43.1307C7.2034 42.7986 8.10408 41.7012 8.46374 41.1113C8.82136 40.5224 9.73325 39.3426 10.3099 38.5876C10.8866 37.8336 12.3772 36.9003 13.6294 36.4877C14.8795 36.0771 16.2876 35.5483 17.008 34.7587C17.7263 33.9691 17.6763 33.7398 18.1491 33.5269C18.6218 33.3149 19.2403 33.0674 19.388 32.8086C19.5337 32.5518 19.5409 31.6909 20.2673 31.4575C20.9938 31.2242 20.9673 31.214 21.0315 30.9104C21.0946 30.6068 20.6688 30.3806 20.4405 30.349C20.2164 30.3185 19.5704 30.4794 19.6601 30.2624C19.7528 30.0464 20.1858 29.4799 20.7431 29.2242C21.2994 28.9674 21.9648 28.5171 22.1298 28.2267C22.2949 27.9374 22.7554 27.4595 23.3117 27.2028C23.87 26.947 24.6362 26.5099 25.0122 26.354C25.3882 26.1971 26.3398 25.8069 26.5425 25.6897C26.7473 25.5715 27.5074 25.3433 27.5441 24.9317C27.5777 24.5201 27.2517 24.4752 27.6286 24.0066C28.0046 23.5369 28.2298 23.4217 28.564 22.8216C28.8951 22.2225 28.9939 22.1094 29.4657 21.8629C29.9374 21.6163 31.0999 20.9011 31.2456 20.9C31.3913 20.899 31.7286 20.8837 31.9935 20.4609C32.2584 20.0381 32.5865 20.0839 32.8473 20.0157C33.1061 19.9474 33.4902 19.2709 33.8183 19.169C34.1433 19.0681 34.2625 18.6677 34.3022 18.3824C34.342 18.0971 34.4938 17.4502 34.8168 17.3697C35.1397 17.2892 35.3557 16.7767 35.4362 16.4975C35.5157 16.2163 35.6206 15.4593 36.0119 15.3482C36.4021 15.2341 36.2666 15.2993 36.4948 15.0181C36.72 14.7359 36.9115 14.2621 37.262 13.9778C37.6166 13.6936 37.7817 13.5489 37.8774 13.1454C37.9763 12.742 38.2493 11.5091 38.7628 10.8092C39.2763 10.1092 39.7858 9.74242 40.3533 9.25743C40.9198 8.77245 40.9361 8.1917 41.257 7.84019C41.5769 7.48766 41.3569 7.26962 41.5555 7.04649C41.7502 6.82336 41.7766 6.63996 41.8133 6.51974C41.851 6.39849 41.6768 6.16721 41.9193 5.90842C42.1618 5.65064 42.3696 5.65879 42.5887 5.43872C42.7354 5.292 42.7038 5.1677 42.7028 5.04543C38.2789 1.87268 32.8605 0 27 0C12.0878 0 0 12.0878 0 27C0 33.1692 2.0734 38.8515 5.55487 43.3977C5.75762 43.2958 5.96751 43.2 6.18351 43.1307Z" fill="#70CF29"/>
</svg>
